# xmcd
#
# Track frame offsets:
#	150
#	12897
#	29353
#	43599
#	57241
#	71398
#	86100
#	104003
#	120456
#	132884
#	150662
#	165636
#	182462
#	198196
#	211357
#
# Disc length: 3027 seconds
#
# Revision: 0
# Processed by: cddbd v1.5.2PL0 Copyright (c) Steve Scherf et al.
# Submitted via: audiograbber 1.83.01
#
DISCID=c40bd10f
DTITLE=Various Artist - CDX 645
DYEAR=2017
DGENRE=Country
TTITLE0=Little Big Town - Happy People
TTITLE1=Brett Eldredge - Somethin' I'm Good At
TTITLE2=Ray Scott - Livin' This Way
TTITLE3=Bobby Bare - Things Change
TTITLE4=Greg Hudik - Whole Lotta Crazy About You
TTITLE5=Macy Martin - Broke Down
TTITLE6=Brooke Woods - God Bless The World
TTITLE7=SaraBeth - I Want It That Way
TTITLE8=Cortni Bird - Men Don't Have It Like That
TTITLE9=John Hord - More Than I'm Used To
TTITLE10=Blane Howard - Promise To Love Her
TTITLE11=James Robert Webb - Six Strings &TheTruth
TTITLE12=Joe Lasher Jr - Tap A Little Tail Light
TTITLE13=Dave McElroy - Without You
TTITLE14=Parker Willingham - You Get Me Every Time
EXTD=
EXTT0=
EXTT1=
EXTT2=
EXTT3=
EXTT4=
EXTT5=
EXTT6=
EXTT7=
EXTT8=
EXTT9=
EXTT10=
EXTT11=
EXTT12=
EXTT13=
EXTT14=
PLAYORDER=
